<?xml version="1.0"?>
<svg xmlns="http://www.w3.org/2000/svg" id="filled_outline" data-name="filled outline" viewBox="0 0 512 512" width="512" height="512"><path d="M112,288H79.99994A55.99994,55.99994,0,0,0,24,343.99994V448h88Z" style="fill:#91591c"/><path d="M264,152V111.99991A87.99991,87.99991,0,0,0,176.00009,24h-.00018A87.99991,87.99991,0,0,0,88,111.99991V184A79.99993,79.99993,0,0,0,120,248l0,0H224Z" style="fill:#b1712c"/><path d="M432,416V391.99994A55.99994,55.99994,0,0,1,487.99994,336h-136A55.99994,55.99994,0,0,0,296,391.99994V416Z" style="fill:#e8f2ff"/><path d="M200,208l8,24,52.63047,32.894a32,32,0,0,1,14.278,20.19417L288,344l-48,6.85714V448H112V350.85714L64,344l13.09151-58.91178a32,32,0,0,1,14.278-20.19417L144,232l8-24Z" style="fill:#548aff"/><path d="M264,152V304h-.00006A55.99994,55.99994,0,0,1,208,248.00006V152Z" style="fill:#b1712c"/><polygon points="224 320 248 304 296 384 296 416 272 400 224 320" style="fill:#ffc431"/><rect x="176" y="248" width="16" height="72" style="fill:#4976f2"/><rect x="24" y="448" width="464" height="40" style="fill:#d69651"/><polygon points="208 232 184 264 144 232 152 208 200 208 208 232" style="fill:#ffbfa1"/><path d="M120,104v56a56,56,0,0,0,55.99994,56h.00012A56,56,0,0,0,232,160V104H176L160,72l-16,32Z" style="fill:#ffceb6"/><polygon points="120 352 120 368 200 376 248 360 272 384 272 416 88 416 64 392 71.814 345.116 120 352" style="fill:#ffceb6"/><rect x="152" y="416" width="152" height="32" style="fill:#c8dbf7"/><rect x="304" y="416" width="128" height="32" style="fill:#e0edff"/><path d="M176,160a8.00917,8.00917,0,0,1-8,8h-8v16h8a24.0275,24.0275,0,0,0,24-24v-8H176Z"/><circle cx="152" cy="136" r="8"/><circle cx="200" cy="136" r="8"/><path d="M440,392a48.05468,48.05468,0,0,1,48-48,8,8,0,0,0,0-16H352a64.07312,64.07312,0,0,0-58.03369,37.06079l-7.49048-12.484,3.3562-.78967a7.99943,7.99943,0,0,0,5.97754-9.52246L282.71777,283.353A40.20488,40.20488,0,0,0,272,263.80573V112a96,96,0,0,0-192,0v72a88.48809,88.48809,0,0,0,25.93311,62.35748l-18.8042,11.75238A40.26858,40.26858,0,0,0,69.95337,280.7948,64.0973,64.0973,0,0,0,16,344V488a8.00008,8.00008,0,0,0,8,8H488a8.00008,8.00008,0,0,0,8-8V448a8.00008,8.00008,0,0,0-8-8H440Zm-88-48h93.71191A63.86763,63.86763,0,0,0,424,392v16H304V392A48.05468,48.05468,0,0,1,352,344ZM160,440V424H296v16Zm-40,0V424h24v16ZM78.42041,354.14117,112,358.93829V368a8.00035,8.00035,0,0,0,7.2041,7.96045l80,8a8.03349,8.03349,0,0,0,3.32617-.37109l43.3086-14.43653L264,387.314V408H91.31348L72.56836,389.25439ZM288,401.05176l-8-5.33313V384a8.00035,8.00035,0,0,0-2.34277-5.65674l-23.30371-23.30377-19.56934-32.6142,10.67285-7.11474L288,386.21582Zm-10.166-62.87811-15.73315-26.22181C262.7334,311.9704,263.363,312,264,312a7.99622,7.99622,0,0,0,7.51855-5.288l6.958,31.31042ZM96,184V112a80,80,0,0,1,160,0V295.3335A48.07871,48.07871,0,0,1,216,248V209.907A63.898,63.898,0,0,0,240,160V104a8.00008,8.00008,0,0,0-8-8H180.94434L167.15527,68.42236a7.99971,7.99971,0,0,0-14.31054,0L139.05566,96H120a8.00008,8.00008,0,0,0-8,8v56a63.99084,63.99084,0,0,0,29.593,53.922l-4.27271,12.81872L119.938,237.60443A72.3964,72.3964,0,0,1,96,184Zm86.55273,68.59668-29.199-23.35852,2.801-8.4032a63.79854,63.79854,0,0,0,39.69042,0l3.23951,9.71851ZM176,208a48.054,48.054,0,0,1-48-48V112h16a7.99979,7.99979,0,0,0,7.15527-4.42236L160,89.88867l8.84473,17.689A7.99979,7.99979,0,0,0,176,112h48v48A48.054,48.054,0,0,1,176,208ZM95.60938,271.67822l47.82177-29.88849L176,267.84473V320h16V266.667l8.44263-11.25689a64.12009,64.12009,0,0,0,32.89526,48.75l-13.77539,9.18365a7.99987,7.99987,0,0,0-2.42285,10.772l18.86914,31.44861-36.915,12.3053L128,360.76025V312H112v30.776l-38.31641-5.47375,11.21778-50.47852A24.14256,24.14256,0,0,1,95.60938,271.67822ZM32,344a48.08156,48.08156,0,0,1,34.0083-45.91418l-9.81787,44.17883a7.98437,7.98437,0,0,0,6.38843,9.598L56.1084,390.68506a8.0039,8.0039,0,0,0,2.23437,6.97168l24,24A8.00076,8.00076,0,0,0,88,424h16v16H32ZM480,480H32V456H480ZM312,440V424H424v16Z"/></svg>
